<svg width="18" height="12" viewBox="0 0 18 12" fill="none" xmlns="http://www.w3.org/2000/svg">
<path fill-rule="evenodd" clip-rule="evenodd" d="M2.61522 6.5629L6.70083 10.4082C7.00525 10.6942 7.00525 11.1586 6.70083 11.4456C6.39642 11.7317 5.9024 11.7317 5.59852 11.4456L0.221537 6.38496C0.0602487 6.23215 -0.00917997 6.02908 0.0009673 5.82953C-0.00917997 5.62948 0.0602487 5.42691 0.221537 5.2736L5.59852 0.213914C5.9024 -0.0725975 6.39642 -0.0725975 6.70083 0.213914C7.00525 0.499923 7.00525 0.964873 6.70083 1.25138L2.61522 5.09616L17.2208 5.09616C17.6518 5.09616 18 5.42389 18 5.82953C18 6.23416 17.6518 6.5629 17.2208 6.5629L2.61522 6.5629Z" fill="#525557"/>
</svg>
