<svg width="24" height="24" viewBox="0 0 24 24" fill="none" xmlns="http://www.w3.org/2000/svg">
<path fill-rule="evenodd" clip-rule="evenodd" d="M18.2451 4.55418H16.8042V3.59388C16.8042 3.32845 16.589 3.11328 16.3236 3.11328C16.0582 3.11328 15.843 3.32845 15.843 3.59388V4.55418H8.15698V3.59388C8.15698 3.32845 7.94181 3.11328 7.67638 3.11328C7.41095 3.11328 7.19578 3.32845 7.19578 3.59388V4.55418H5.75488C4.43008 4.55418 3.35278 5.63148 3.35278 6.95628V18.4862C3.35278 19.811 4.43008 20.8883 5.75488 20.8883H18.2451C19.5699 20.8883 20.6472 19.811 20.6472 18.4862V9.35838V8.39808V6.95628C20.6472 5.63238 19.5699 4.55418 18.2451 4.55418ZM19.6869 18.4862C19.6869 19.2809 19.0407 19.9271 18.246 19.9271H5.75488C4.96018 19.9271 4.31398 19.2809 4.31398 18.4862V9.35838H19.6869V18.4862ZM4.31308 8.39808H19.6869V6.95628C19.6869 6.16158 19.0407 5.51538 18.246 5.51538H16.8051V5.99598C16.8051 6.26141 16.5899 6.47658 16.3245 6.47658C16.0591 6.47658 15.8439 6.26141 15.8439 5.99598V5.51538H8.15698V5.99553C8.15698 6.26121 7.94161 6.47658 7.67593 6.47658C7.41026 6.47658 7.19488 6.26121 7.19488 5.99553V5.51538H5.75398C4.95928 5.51538 4.31308 6.16158 4.31308 6.95628V8.39808Z" fill="#525557"/>
<path d="M16.8042 4.55418H16.6542V4.70418H16.8042V4.55418ZM15.843 4.55418V4.70418H15.993V4.55418H15.843ZM8.15698 4.55418H8.00698V4.70418H8.15698V4.55418ZM7.19578 4.55418V4.70418H7.34578V4.55418H7.19578ZM4.31398 9.35838V9.20838H4.16398V9.35838H4.31398ZM19.6869 9.35838H19.8369V9.20838H19.6869V9.35838ZM19.6869 8.39808V8.54808H19.8369V8.39808H19.6869ZM4.31308 8.39808H4.16308V8.54808H4.31308V8.39808ZM16.8051 5.51538V5.36538H16.6551V5.51538H16.8051ZM15.8439 5.51538H15.9939V5.36538H15.8439V5.51538ZM8.15698 5.51538V5.36538H8.00698V5.51538H8.15698ZM7.19488 5.51538H7.34488V5.36538H7.19488V5.51538ZM16.8042 4.70418H18.2451V4.40418H16.8042V4.70418ZM16.6542 3.59388V4.55418H16.9542V3.59388H16.6542ZM16.3236 3.26328C16.5062 3.26328 16.6542 3.4113 16.6542 3.59388H16.9542C16.9542 3.24561 16.6719 2.96328 16.3236 2.96328V3.26328ZM15.993 3.59388C15.993 3.4113 16.141 3.26328 16.3236 3.26328V2.96328C15.9753 2.96328 15.693 3.24561 15.693 3.59388H15.993ZM15.993 4.55418V3.59388H15.693V4.55418H15.993ZM8.15698 4.70418H15.843V4.40418H8.15698V4.70418ZM8.00698 3.59388V4.55418H8.30698V3.59388H8.00698ZM7.67638 3.26328C7.85897 3.26328 8.00698 3.4113 8.00698 3.59388H8.30698C8.30698 3.24561 8.02465 2.96328 7.67638 2.96328V3.26328ZM7.34578 3.59388C7.34578 3.4113 7.4938 3.26328 7.67638 3.26328V2.96328C7.32811 2.96328 7.04578 3.24561 7.04578 3.59388H7.34578ZM7.34578 4.55418V3.59388H7.04578V4.55418H7.34578ZM5.75488 4.70418H7.19578V4.40418H5.75488V4.70418ZM3.50278 6.95628C3.50278 5.71432 4.51293 4.70418 5.75488 4.70418V4.40418C4.34724 4.40418 3.20278 5.54864 3.20278 6.95628H3.50278ZM3.50278 18.4862V6.95628H3.20278V18.4862H3.50278ZM5.75488 20.7383C4.51293 20.7383 3.50278 19.7281 3.50278 18.4862H3.20278C3.20278 19.8938 4.34724 21.0383 5.75488 21.0383V20.7383ZM18.2451 20.7383H5.75488V21.0383H18.2451V20.7383ZM20.4972 18.4862C20.4972 19.7281 19.487 20.7383 18.2451 20.7383V21.0383C19.6527 21.0383 20.7972 19.8938 20.7972 18.4862H20.4972ZM20.4972 9.35838V18.4862H20.7972V9.35838H20.4972ZM20.4972 8.39808V9.35838H20.7972V8.39808H20.4972ZM20.4972 6.95628V8.39808H20.7972V6.95628H20.4972ZM18.2451 4.70418C19.487 4.70418 20.4972 5.71519 20.4972 6.95628H20.7972C20.7972 5.54958 19.6528 4.40418 18.2451 4.40418V4.70418ZM18.246 20.0771C19.1235 20.0771 19.8369 19.3637 19.8369 18.4862H19.5369C19.5369 19.198 18.9578 19.7771 18.246 19.7771V20.0771ZM5.75488 20.0771H18.246V19.7771H5.75488V20.0771ZM4.16398 18.4862C4.16398 19.3637 4.87734 20.0771 5.75488 20.0771V19.7771C5.04303 19.7771 4.46398 19.198 4.46398 18.4862H4.16398ZM4.16398 9.35838V18.4862H4.46398V9.35838H4.16398ZM19.6869 9.20838H4.31398V9.50838H19.6869V9.20838ZM19.8369 18.4862V9.35838H19.5369V18.4862H19.8369ZM19.6869 8.24808H4.31308V8.54808H19.6869V8.24808ZM19.5369 6.95628V8.39808H19.8369V6.95628H19.5369ZM18.246 5.66538C18.9578 5.66538 19.5369 6.24442 19.5369 6.95628H19.8369C19.8369 6.07874 19.1235 5.36538 18.246 5.36538V5.66538ZM16.8051 5.66538H18.246V5.36538H16.8051V5.66538ZM16.9551 5.99598V5.51538H16.6551V5.99598H16.9551ZM16.3245 6.62658C16.6728 6.62658 16.9551 6.34425 16.9551 5.99598H16.6551C16.6551 6.17857 16.5071 6.32658 16.3245 6.32658V6.62658ZM15.6939 5.99598C15.6939 6.34425 15.9762 6.62658 16.3245 6.62658V6.32658C16.1419 6.32658 15.9939 6.17857 15.9939 5.99598H15.6939ZM15.6939 5.51538V5.99598H15.9939V5.51538H15.6939ZM8.15698 5.66538H15.8439V5.36538H8.15698V5.66538ZM8.30698 5.99553V5.51538H8.00698V5.99553H8.30698ZM7.67593 6.62658C8.02445 6.62658 8.30698 6.34405 8.30698 5.99553H8.00698C8.00698 6.17837 7.85877 6.32658 7.67593 6.32658V6.62658ZM7.04488 5.99553C7.04488 6.34405 7.32741 6.62658 7.67593 6.62658V6.32658C7.4931 6.32658 7.34488 6.17837 7.34488 5.99553H7.04488ZM7.04488 5.51538V5.99553H7.34488V5.51538H7.04488ZM5.75398 5.66538H7.19488V5.36538H5.75398V5.66538ZM4.46308 6.95628C4.46308 6.24442 5.04213 5.66538 5.75398 5.66538V5.36538C4.87644 5.36538 4.16308 6.07874 4.16308 6.95628H4.46308ZM4.46308 8.39808V6.95628H4.16308V8.39808H4.46308Z" fill="#525557"/>
<path fill-rule="evenodd" clip-rule="evenodd" d="M12.9395 11V17.7096H11.8776V12.2998C11.6854 12.4371 11.4787 12.5538 11.2575 12.6499C11.0363 12.7461 10.5 12.904 10.5 12.904C10.5 12.4007 10.5 11.9978 10.5 11.9978C10.5 11.9978 10.8478 11.8788 11.0126 11.8147C11.1774 11.7506 11.3398 11.6789 11.5 11.5996C11.6602 11.5202 11.8219 11.4317 11.9852 11.3341C12.1484 11.2365 12.317 11.1251 12.4909 11H12.9395Z" fill="#525557"/>
</svg>
