<svg width="19" height="19" viewBox="0 0 19 19" fill="none" xmlns="http://www.w3.org/2000/svg">
<path d="M13 10.8581C13 11.3882 12.7907 11.8122 12.4767 12.2362L7.87165 17.6422C7.66233 17.9602 7.24369 18.0662 6.82505 17.9602C6.40641 17.8542 6.19709 17.6422 5.98777 17.2182L5.77845 16.6882C5.56913 16.1582 5.67379 15.5222 5.88311 15.0982L7.76699 11.6002H2.01069C1.69671 11.6002 1.38273 11.3882 1.17341 11.1761C0.964086 10.9641 0.964086 10.5401 1.06875 10.2221L4.10389 2.37802C4.41787 1.53001 5.15049 1 6.09243 1H11.9534C12.5814 1 13 1.42401 13 2.06002V10.8581Z" fill="#8A8A8A" stroke="#8A8A8A" stroke-linejoin="round"/>
<path d="M15 10.9C15 11.56 15.4 12 16 12H18V1H16C15.4 1 15 1.44 15 2.1V10.9Z" fill="#8A8A8A" stroke="#8A8A8A" stroke-linejoin="round"/>
</svg>
