<svg width="19" height="19" viewBox="0 0 19 19" fill="none" xmlns="http://www.w3.org/2000/svg">
<path d="M6.29419 8.15335C6.29419 7.62394 6.50595 7.20041 6.8236 6.77688L11.4824 1.37688C11.6942 1.05924 12.1177 0.953355 12.5412 1.05924C12.9648 1.16512 13.1765 1.37688 13.3883 1.80041L13.6001 2.32983C13.8118 2.85924 13.706 3.49453 13.4942 3.91806L11.5883 7.41218H17.4118C17.7295 7.41218 18.0471 7.62394 18.2589 7.83571C18.4707 8.15335 18.4707 8.471 18.3648 8.78865L15.2942 16.6239C14.9765 17.471 14.2354 18.0004 13.2824 18.0004H7.35301C6.71772 18.0004 6.29419 17.5769 6.29419 16.9416V8.15335Z" fill="#9EC74A" stroke="#9EC74A"/>
<path d="M4.17647 8.47093C4.17647 7.83564 3.75294 7.41211 3.11765 7.41211H1V18.0003H3.11765C3.75294 18.0003 4.17647 17.5768 4.17647 16.9415V8.47093Z" fill="#9EC74A" stroke="#9EC74A"/>
</svg>
