<svg width="24" height="24" viewBox="0 0 24 24" fill="none" xmlns="http://www.w3.org/2000/svg">
<circle cx="12" cy="12" r="11.5" fill="#9EC74A" stroke="#779C2A"/>
<path d="M10.05 10.5726C10.05 10.1676 10.212 9.84361 10.455 9.51961L14.019 5.38861C14.181 5.14561 14.505 5.06461 14.829 5.14561C15.153 5.22661 15.315 5.38861 15.477 5.71261L15.639 6.11761C15.801 6.52261 15.72 7.00861 15.558 7.33261L14.1 10.0056H18.555C18.798 10.0056 19.041 10.1676 19.203 10.3296C19.365 10.5726 19.365 10.8156 19.284 11.0586L16.935 17.0526C16.692 17.7006 16.125 18.1056 15.396 18.1056H10.86C10.374 18.1056 10.05 17.7816 10.05 17.2956V10.5726Z" fill="white"/>
<path d="M8.43 10.8159C8.43 10.3299 8.106 10.0059 7.62 10.0059H6V18.1059H7.62C8.106 18.1059 8.43 17.7819 8.43 17.2959V10.8159Z" fill="white"/>
</svg>
